// this file was generated from Mid Res Square 10.exs using vonred's exs2sfz.py. Trickster goddess incoming.

<group>lokey=24 hikey=30 pitch_keycenter=24 pitch_keytrack=1
	<region> lovel=001 hivel=008 amp_velcurve_008=1 loop_mode=loop_sustain loop_start=18199 loop_end=28999 sample=../Audio/Mid Res Square 10/(201677 1560)/ajck 24-30 1-8-J4WX.wav
	<region> lovel=009 hivel=016 amp_velcurve_016=1 loop_mode=loop_sustain loop_start=18659 loop_end=29605 sample=../Audio/Mid Res Square 10/(201677 1560)/ajck 24-30 9-16-H6ZN.wav
	<region> lovel=017 hivel=024 amp_velcurve_024=1 loop_mode=loop_sustain loop_start=17590 loop_end=28897 sample=../Audio/Mid Res Square 10/(201677 1560)/ajck 24-30 17-24-U3HF.wav
	<region> lovel=025 hivel=032 amp_velcurve_032=1 loop_mode=loop_sustain loop_start=18488 loop_end=29293 sample=../Audio/Mid Res Square 10/(201677 1560)/ajck 24-30 25-32-CX47.wav
	<region> lovel=033 hivel=040 amp_velcurve_040=1 loop_mode=loop_sustain loop_start=16610 loop_end=30955 sample=../Audio/Mid Res Square 10/(201677 1560)/ajck 24-30 33-40-GED1.wav
	<region> lovel=041 hivel=048 amp_velcurve_048=1 loop_mode=loop_sustain loop_start=16610 loop_end=28897 sample=../Audio/Mid Res Square 10/(201677 1560)/ajck 24-30 41-48-CB3U.wav
	<region> lovel=049 hivel=056 amp_velcurve_056=1 loop_mode=loop_sustain loop_start=29922 loop_end=51425 sample=../Audio/Mid Res Square 10/(201677 1560)/ajck 24-30 49-56-2BRF.wav
	<region> lovel=057 hivel=064 amp_velcurve_064=1 loop_mode=loop_sustain loop_start=24580 loop_end=46214 sample=../Audio/Mid Res Square 10/(201677 1560)/ajck 24-30 57-64-DH3W.wav
	<region> lovel=065 hivel=071 amp_velcurve_071=1 loop_mode=loop_sustain loop_start=25249 loop_end=46879 sample=../Audio/Mid Res Square 10/(201677 1560)/ajck 24-30 65-71-T5QK.wav
	<region> lovel=072 hivel=079 amp_velcurve_079=1 loop_mode=loop_sustain loop_start=47827 loop_end=69439 sample=../Audio/Mid Res Square 10/(201677 1560)/ajck 24-30 72-79-2GST.wav
	<region> lovel=080 hivel=087 amp_velcurve_087=1 loop_mode=loop_sustain loop_start=23294 loop_end=44906 sample=../Audio/Mid Res Square 10/(201677 1560)/ajck 24-30 80-87-ZE09.wav
	<region> lovel=088 hivel=095 amp_velcurve_095=1 loop_mode=loop_sustain loop_start=45671 loop_end=67283 sample=../Audio/Mid Res Square 10/(201677 1560)/ajck 24-30 88-95-56ST.wav
	<region> lovel=096 hivel=103 amp_velcurve_103=1 loop_mode=loop_sustain loop_start=31868 loop_end=53510 sample=../Audio/Mid Res Square 10/(201677 1560)/ajck 24-30 96-103-EPLJ.wav
	<region> lovel=104 hivel=111 amp_velcurve_111=1 loop_mode=loop_sustain loop_start=25754 loop_end=69014 sample=../Audio/Mid Res Square 10/(201677 1560)/ajck 24-30 104-111-FIEJ.wav
	<region> lovel=112 hivel=119 amp_velcurve_119=1 loop_mode=loop_sustain loop_start=32901 loop_end=54612 sample=../Audio/Mid Res Square 10/(201677 1560)/ajck 24-30 112-119-O8RV.wav
	<region> lovel=120 hivel=127 amp_velcurve_127=1 loop_mode=loop_sustain loop_start=30497 loop_end=52109 sample=../Audio/Mid Res Square 10/(201677 1560)/ajck 24-30 120-127-Z695.wav
<group>lokey=31 hikey=45 pitch_keycenter=39 pitch_keytrack=1
	<region> lovel=001 hivel=008 amp_velcurve_008=1 loop_mode=loop_sustain loop_start=16881 loop_end=30479 sample=../Audio/Mid Res Square 10/(201677 1560)/ajck 31-45 1-8-RG5C.wav
	<region> lovel=009 hivel=016 amp_velcurve_016=1 loop_mode=loop_sustain loop_start=16852 loop_end=30451 sample=../Audio/Mid Res Square 10/(201677 1560)/ajck 31-45 9-16-C50Y.wav
	<region> lovel=017 hivel=024 amp_velcurve_024=1 loop_mode=loop_sustain loop_start=18659 loop_end=29856 sample=../Audio/Mid Res Square 10/(201677 1560)/ajck 31-45 17-24-6DEZ.wav
	<region> lovel=025 hivel=032 amp_velcurve_032=1 loop_mode=loop_sustain loop_start=16610 loop_end=30210 sample=../Audio/Mid Res Square 10/(201677 1560)/ajck 31-45 25-32-HH5L.wav
	<region> lovel=033 hivel=040 amp_velcurve_040=1 loop_mode=loop_sustain loop_start=17135 loop_end=30734 sample=../Audio/Mid Res Square 10/(201677 1560)/ajck 31-45 33-40-GQOQ.wav
	<region> lovel=041 hivel=048 amp_velcurve_048=1 loop_mode=loop_sustain loop_start=28824 loop_end=41195 sample=../Audio/Mid Res Square 10/(201677 1560)/ajck 31-45 41-48-2QF6.wav
	<region> lovel=049 hivel=056 amp_velcurve_056=1 loop_mode=loop_sustain loop_start=40655 loop_end=72390 sample=../Audio/Mid Res Square 10/(201677 1560)/ajck 31-45 49-56-WXQ2.wav
	<region> lovel=057 hivel=064 amp_velcurve_064=1 loop_mode=loop_sustain loop_start=31752 loop_end=63488 sample=../Audio/Mid Res Square 10/(201677 1560)/ajck 31-45 57-64-62NG.wav
	<region> lovel=065 hivel=071 amp_velcurve_071=1 loop_mode=loop_sustain loop_start=24499 loop_end=56235 sample=../Audio/Mid Res Square 10/(201677 1560)/ajck 31-45 65-71-QTOP.wav
	<region> lovel=072 hivel=079 amp_velcurve_079=1 loop_mode=loop_sustain loop_start=33611 loop_end=65347 sample=../Audio/Mid Res Square 10/(201677 1560)/ajck 31-45 72-79-QZ70.wav
	<region> lovel=080 hivel=087 amp_velcurve_087=1 loop_mode=loop_sustain loop_start=33748 loop_end=65484 sample=../Audio/Mid Res Square 10/(201677 1560)/ajck 31-45 80-87-AB2V.wav
	<region> lovel=088 hivel=095 amp_velcurve_095=1 loop_mode=loop_sustain loop_start=40974 loop_end=72710 sample=../Audio/Mid Res Square 10/(201677 1560)/ajck 31-45 88-95-I4UX.wav
	<region> lovel=096 hivel=103 amp_velcurve_103=1 loop_mode=loop_sustain loop_start=32571 loop_end=64307 sample=../Audio/Mid Res Square 10/(201677 1560)/ajck 31-45 96-103-A8VZ.wav
	<region> lovel=104 hivel=111 amp_velcurve_111=1 loop_mode=loop_sustain loop_start=38775 loop_end=70511 sample=../Audio/Mid Res Square 10/(201677 1560)/ajck 31-45 104-111-4U2Z.wav
	<region> lovel=112 hivel=119 amp_velcurve_119=1 loop_mode=loop_sustain loop_start=40035 loop_end=71771 sample=../Audio/Mid Res Square 10/(201677 1560)/ajck 31-45 112-119-YS2E.wav
	<region> lovel=120 hivel=127 amp_velcurve_127=1 loop_mode=loop_sustain loop_start=35571 loop_end=67307 sample=../Audio/Mid Res Square 10/(201677 1560)/ajck 31-45 120-127-HSHR.wav
<group>lokey=46 hikey=60 pitch_keycenter=54 pitch_keytrack=1
	<region> lovel=001 hivel=008 amp_velcurve_008=1 loop_mode=loop_sustain loop_start=18114 loop_end=29553 sample=../Audio/Mid Res Square 10/(201677 1560)/ajck 46-60 1-8-NCRM.wav
	<region> lovel=009 hivel=016 amp_velcurve_016=1 loop_mode=loop_sustain loop_start=18282 loop_end=29719 sample=../Audio/Mid Res Square 10/(201677 1560)/ajck 46-60 9-16-UDTN.wav
	<region> lovel=017 hivel=024 amp_velcurve_024=1 loop_mode=loop_sustain loop_start=18589 loop_end=30015 sample=../Audio/Mid Res Square 10/(201677 1560)/ajck 46-60 17-24-M2PR.wav
	<region> lovel=025 hivel=032 amp_velcurve_032=1 loop_mode=loop_sustain loop_start=18122 loop_end=29555 sample=../Audio/Mid Res Square 10/(201677 1560)/ajck 46-60 25-32-342L.wav
	<region> lovel=033 hivel=040 amp_velcurve_040=1 loop_mode=loop_sustain loop_start=17399 loop_end=30736 sample=../Audio/Mid Res Square 10/(201677 1560)/ajck 46-60 33-40-4O2I.wav
	<region> lovel=041 hivel=048 amp_velcurve_048=1 loop_mode=loop_sustain loop_start=17523 loop_end=28955 sample=../Audio/Mid Res Square 10/(201677 1560)/ajck 46-60 41-48-MLOP.wav
	<region> lovel=049 hivel=056 amp_velcurve_056=1 loop_mode=loop_sustain loop_start=44070 loop_end=57408 sample=../Audio/Mid Res Square 10/(201677 1560)/ajck 46-60 49-56-LUPT.wav
	<region> lovel=057 hivel=064 amp_velcurve_064=1 loop_mode=loop_sustain loop_start=47151 loop_end=60489 sample=../Audio/Mid Res Square 10/(201677 1560)/ajck 46-60 57-64-O80J.wav
	<region> lovel=065 hivel=071 amp_velcurve_071=1 loop_mode=loop_sustain loop_start=54429 loop_end=65861 sample=../Audio/Mid Res Square 10/(201677 1560)/ajck 46-60 65-71-1WWO.wav
	<region> lovel=072 hivel=079 amp_velcurve_079=1 loop_mode=loop_sustain loop_start=43050 loop_end=56388 sample=../Audio/Mid Res Square 10/(201677 1560)/ajck 46-60 72-79-9S6Q.wav
	<region> lovel=080 hivel=087 amp_velcurve_087=1 loop_mode=loop_sustain loop_start=56488 loop_end=67920 sample=../Audio/Mid Res Square 10/(201677 1560)/ajck 46-60 80-87-2I75.wav
	<region> lovel=088 hivel=095 amp_velcurve_095=1 loop_mode=loop_sustain loop_start=48311 loop_end=59743 sample=../Audio/Mid Res Square 10/(201677 1560)/ajck 46-60 88-95-C7TX.wav
	<region> lovel=096 hivel=103 amp_velcurve_103=1 loop_mode=loop_sustain loop_start=48150 loop_end=61488 sample=../Audio/Mid Res Square 10/(201677 1560)/ajck 46-60 96-103-CTFA.wav
	<region> lovel=104 hivel=111 amp_velcurve_111=1 loop_mode=loop_sustain loop_start=58527 loop_end=69959 sample=../Audio/Mid Res Square 10/(201677 1560)/ajck 46-60 104-111-OEZ6.wav
	<region> lovel=112 hivel=119 amp_velcurve_119=1 loop_mode=loop_sustain loop_start=45132 loop_end=58470 sample=../Audio/Mid Res Square 10/(201677 1560)/ajck 46-60 112-119-BF55.wav
	<region> lovel=120 hivel=127 amp_velcurve_127=1 loop_mode=loop_sustain loop_start=59461 loop_end=72799 sample=../Audio/Mid Res Square 10/(201677 1560)/ajck 46-60 120-127-VTFS.wav
<group>lokey=61 hikey=75 pitch_keycenter=69 pitch_keytrack=1
	<region> lovel=001 hivel=008 amp_velcurve_008=1 loop_mode=loop_sustain loop_start=56501 loop_end=70881 sample=../Audio/Mid Res Square 10/(201677 1560)/ajck 61-75 1-8-W8J4.wav
	<region> lovel=009 hivel=016 amp_velcurve_016=1 loop_mode=loop_sustain loop_start=33194 loop_end=66785 sample=../Audio/Mid Res Square 10/(201677 1560)/ajck 61-75 9-16-CFHM.wav
	<region> lovel=017 hivel=024 amp_velcurve_024=1 loop_mode=loop_sustain loop_start=18517 loop_end=29728 sample=../Audio/Mid Res Square 10/(201677 1560)/ajck 61-75 17-24-H6IE.wav
	<region> lovel=025 hivel=032 amp_velcurve_032=1 loop_mode=loop_sustain loop_start=27380 loop_end=40994 sample=../Audio/Mid Res Square 10/(201677 1560)/ajck 61-75 25-32-YS9K.wav
	<region> lovel=033 hivel=040 amp_velcurve_040=1 loop_mode=loop_sustain loop_start=17099 loop_end=30713 sample=../Audio/Mid Res Square 10/(201677 1560)/ajck 61-75 33-40-SI4Q.wav
	<region> lovel=041 hivel=048 amp_velcurve_048=1 loop_mode=loop_sustain loop_start=29206 loop_end=47626 sample=../Audio/Mid Res Square 10/(201677 1560)/ajck 61-75 41-48-GXCH.wav
	<region> lovel=049 hivel=056 amp_velcurve_056=1 loop_mode=loop_sustain loop_start=34356 loop_end=54378 sample=../Audio/Mid Res Square 10/(201677 1560)/ajck 61-75 49-56-6IPP.wav
	<region> lovel=057 hivel=064 amp_velcurve_064=1 loop_mode=loop_sustain loop_start=47532 loop_end=66753 sample=../Audio/Mid Res Square 10/(201677 1560)/ajck 61-75 57-64-8G33.wav
	<region> lovel=065 hivel=071 amp_velcurve_071=1 loop_mode=loop_sustain loop_start=44644 loop_end=64666 sample=../Audio/Mid Res Square 10/(201677 1560)/ajck 61-75 65-71-42D8.wav
	<region> lovel=072 hivel=079 amp_velcurve_079=1 loop_mode=loop_sustain loop_start=36230 loop_end=54650 sample=../Audio/Mid Res Square 10/(201677 1560)/ajck 61-75 72-79-TQNK.wav
	<region> lovel=080 hivel=087 amp_velcurve_087=1 loop_mode=loop_sustain loop_start=49670 loop_end=67289 sample=../Audio/Mid Res Square 10/(201677 1560)/ajck 61-75 80-87-6L4A.wav
	<region> lovel=088 hivel=095 amp_velcurve_095=1 loop_mode=loop_sustain loop_start=46735 loop_end=65956 sample=../Audio/Mid Res Square 10/(201677 1560)/ajck 61-75 88-95-K67I.wav
	<region> lovel=096 hivel=103 amp_velcurve_103=1 loop_mode=loop_sustain loop_start=21641 loop_end=38459 sample=../Audio/Mid Res Square 10/(201677 1560)/ajck 61-75 96-103-N1W4.wav
	<region> lovel=104 hivel=111 amp_velcurve_111=1 loop_mode=loop_sustain loop_start=37031 loop_end=53849 sample=../Audio/Mid Res Square 10/(201677 1560)/ajck 61-75 104-111-YNJE.wav
	<region> lovel=112 hivel=119 amp_velcurve_119=1 loop_mode=loop_sustain loop_start=34981 loop_end=51799 sample=../Audio/Mid Res Square 10/(201677 1560)/ajck 61-75 112-119-OHKU.wav
	<region> lovel=120 hivel=127 amp_velcurve_127=1 loop_mode=loop_sustain loop_start=53823 loop_end=71442 sample=../Audio/Mid Res Square 10/(201677 1560)/ajck 61-75 120-127-TXN2.wav
<group>lokey=76 hikey=90 pitch_keycenter=84 pitch_keytrack=1
	<region> lovel=001 hivel=008 amp_velcurve_008=1 loop_mode=loop_sustain loop_start=36238 loop_end=47465 sample=../Audio/Mid Res Square 10/(201677 1560)/ajck 76-90 1-8-EUQ1.wav
	<region> lovel=009 hivel=016 amp_velcurve_016=1 loop_mode=loop_sustain loop_start=27624 loop_end=41719 sample=../Audio/Mid Res Square 10/(201677 1560)/ajck 76-90 9-16-2V2J.wav
	<region> lovel=017 hivel=024 amp_velcurve_024=1 loop_mode=loop_sustain loop_start=35042 loop_end=63333 sample=../Audio/Mid Res Square 10/(201677 1560)/ajck 76-90 17-24-28LU.wav
	<region> lovel=025 hivel=032 amp_velcurve_032=1 loop_mode=loop_sustain loop_start=22724 loop_end=34840 sample=../Audio/Mid Res Square 10/(201677 1560)/ajck 76-90 25-32-S2XY.wav
	<region> lovel=033 hivel=040 amp_velcurve_040=1 loop_mode=loop_sustain loop_start=18031 loop_end=30488 sample=../Audio/Mid Res Square 10/(201677 1560)/ajck 76-90 33-40-HZ8Q.wav
	<region> lovel=041 hivel=048 amp_velcurve_048=1 loop_mode=loop_sustain loop_start=18020 loop_end=30813 sample=../Audio/Mid Res Square 10/(201677 1560)/ajck 76-90 41-48-SNPR.wav
	<region> lovel=049 hivel=056 amp_velcurve_056=1 loop_mode=loop_sustain loop_start=34547 loop_end=56432 sample=../Audio/Mid Res Square 10/(201677 1560)/ajck 76-90 49-56-KGF3.wav
	<region> lovel=057 hivel=064 amp_velcurve_064=1 loop_mode=loop_sustain loop_start=39950 loop_end=68232 sample=../Audio/Mid Res Square 10/(201677 1560)/ajck 76-90 57-64-EW1Z.wav
	<region> lovel=065 hivel=071 amp_velcurve_071=1 loop_mode=loop_sustain loop_start=29251 loop_end=48442 sample=../Audio/Mid Res Square 10/(201677 1560)/ajck 76-90 65-71-MXGA.wav
	<region> lovel=072 hivel=079 amp_velcurve_079=1 loop_mode=loop_sustain loop_start=32187 loop_end=45991 sample=../Audio/Mid Res Square 10/(201677 1560)/ajck 76-90 72-79-DI25.wav
	<region> lovel=080 hivel=087 amp_velcurve_087=1 loop_mode=loop_sustain loop_start=19248 loop_end=32715 sample=../Audio/Mid Res Square 10/(201677 1560)/ajck 76-90 80-87-554Q.wav
	<region> lovel=088 hivel=095 amp_velcurve_095=1 loop_mode=loop_sustain loop_start=35886 loop_end=54740 sample=../Audio/Mid Res Square 10/(201677 1560)/ajck 76-90 88-95-CAPM.wav
	<region> lovel=096 hivel=103 amp_velcurve_103=1 loop_mode=loop_sustain loop_start=25441 loop_end=72578 sample=../Audio/Mid Res Square 10/(201677 1560)/ajck 76-90 96-103-5W1P.wav
	<region> lovel=104 hivel=111 amp_velcurve_111=1 loop_mode=loop_sustain loop_start=47986 loop_end=71554 sample=../Audio/Mid Res Square 10/(201677 1560)/ajck 76-90 104-111-383P.wav
	<region> lovel=112 hivel=119 amp_velcurve_119=1 loop_mode=loop_sustain loop_start=41397 loop_end=64965 sample=../Audio/Mid Res Square 10/(201677 1560)/ajck 76-90 112-119-VIDX.wav
	<region> lovel=120 hivel=127 amp_velcurve_127=1 loop_mode=loop_sustain loop_start=35257 loop_end=68926 sample=../Audio/Mid Res Square 10/(201677 1560)/ajck 76-90 120-127-1J00.wav
<group>lokey=91 hikey=96 pitch_keycenter=96 pitch_keytrack=1
	<region> lovel=001 hivel=008 amp_velcurve_008=1 loop_mode=loop_sustain loop_start=17436 loop_end=30955 sample=../Audio/Mid Res Square 10/(201677 1560)/ajck 91-96 1-8-DD45.wav
	<region> lovel=009 hivel=016 amp_velcurve_016=1 loop_mode=loop_sustain loop_start=46307 loop_end=70978 sample=../Audio/Mid Res Square 10/(201677 1560)/ajck 91-96 9-16-SSYN.wav
	<region> lovel=017 hivel=024 amp_velcurve_024=1 loop_mode=loop_sustain loop_start=18174 loop_end=37252 sample=../Audio/Mid Res Square 10/(201677 1560)/ajck 91-96 17-24-VOM1.wav
	<region> lovel=025 hivel=032 amp_velcurve_032=1 loop_mode=loop_sustain loop_start=35773 loop_end=46378 sample=../Audio/Mid Res Square 10/(201677 1560)/ajck 91-96 25-32-PKVL.wav
	<region> lovel=033 hivel=040 amp_velcurve_040=1 loop_mode=loop_sustain loop_start=32614 loop_end=43724 sample=../Audio/Mid Res Square 10/(201677 1560)/ajck 91-96 33-40-1EQZ.wav
	<region> lovel=041 hivel=048 amp_velcurve_048=1 loop_mode=loop_sustain loop_start=45182 loop_end=58985 sample=../Audio/Mid Res Square 10/(201677 1560)/ajck 91-96 41-48-HQZI.wav
	<region> lovel=049 hivel=056 amp_velcurve_056=1 loop_mode=loop_sustain loop_start=19996 loop_end=35483 sample=../Audio/Mid Res Square 10/(201677 1560)/ajck 91-96 49-56-RY57.wav
	<region> lovel=057 hivel=064 amp_velcurve_064=1 loop_mode=loop_sustain loop_start=43926 loop_end=72543 sample=../Audio/Mid Res Square 10/(201677 1560)/ajck 91-96 57-64-KOS3.wav
	<region> lovel=065 hivel=071 amp_velcurve_071=1 loop_mode=loop_sustain loop_start=26754 loop_end=69680 sample=../Audio/Mid Res Square 10/(201677 1560)/ajck 91-96 65-71-LLM4.wav
	<region> lovel=072 hivel=079 amp_velcurve_079=1 loop_mode=loop_sustain loop_start=36243 loop_end=53413 sample=../Audio/Mid Res Square 10/(201677 1560)/ajck 91-96 72-79-YLQN.wav
	<region> lovel=080 hivel=087 amp_velcurve_087=1 loop_mode=loop_sustain loop_start=53880 loop_end=66673 sample=../Audio/Mid Res Square 10/(201677 1560)/ajck 91-96 80-87-TQJO.wav
	<region> lovel=088 hivel=095 amp_velcurve_095=1 loop_mode=loop_sustain loop_start=31661 loop_end=70547 sample=../Audio/Mid Res Square 10/(201677 1560)/ajck 91-96 88-95-8VAB.wav
	<region> lovel=096 hivel=103 amp_velcurve_103=1 loop_mode=loop_sustain loop_start=25252 loop_end=71882 sample=../Audio/Mid Res Square 10/(201677 1560)/ajck 91-96 96-103-W1MD.wav
	<region> lovel=104 hivel=111 amp_velcurve_111=1 loop_mode=loop_sustain loop_start=44898 loop_end=62573 sample=../Audio/Mid Res Square 10/(201677 1560)/ajck 91-96 104-111-C47D.wav
	<region> lovel=112 hivel=119 amp_velcurve_119=1 loop_mode=loop_sustain loop_start=59458 loop_end=72251 sample=../Audio/Mid Res Square 10/(201677 1560)/ajck 91-96 112-119-HX50.wav
	<region> lovel=120 hivel=127 amp_velcurve_127=1 loop_mode=loop_sustain loop_start=32266 loop_end=48426 sample=../Audio/Mid Res Square 10/(201677 1560)/ajck 91-96 120-127-EGEJ.wav
